<?xml version="1.0" encoding="UTF-8"?>
<!DOCTYPE svg PUBLIC "-//W3C//DTD SVG 1.1//EN" "http://www.w3.org/Graphics/SVG/1.1/DTD/svg11.dtd">
<!-- Creator: CorelDRAW X7 -->
<svg xmlns="http://www.w3.org/2000/svg" xml:space="preserve" width="16" height="16" version="1.1" style="shape-rendering:geometricPrecision; text-rendering:geometricPrecision; image-rendering:optimizeQuality; fill-rule:evenodd; clip-rule:evenodd"
viewBox="0 0 21000 29700"
 xmlns:xlink="http://www.w3.org/1999/xlink">
 <defs>
  <style type="text/css">
   <![CDATA[
    .fil0 {fill:#009144}
    .fil3 {fill:#020404}
    .fil2 {fill:#F7E4C9}
    .fil1 {fill:#FBFBFB}
   ]]>
  </style>
 </defs>
 <g id="Слой_x0020_1">
  <metadata id="CorelCorpID_0Corel-Layer"/>
  <g id="_2128752704688">
   <path class="fil0" d="M9526 16979c1301,-166 2809,2 3980,578 331,163 705,415 896,657 280,353 99,1711 -568,2343 -1208,1145 -6052,1298 -7008,-634 -1055,-2129 922,-2716 2700,-2944zm7486 -732c-538,-156 -932,-1183 -1098,-1936 -96,-439 -154,-942 -158,-1425 -3,-265 4,-518 27,-782l85 -464c3,-9 20,-19 23,-40 3,-21 15,-26 25,-38 931,1445 1271,2637 1096,4685zm-12945 137c-531,-1242 596,-4871 1133,-4770 356,1679 -45,4128 -1133,4770zm6092 -7855c1856,-244 3444,1195 3626,2877 205,1878 -1256,3404 -2903,3562 -4350,417 -5089,-5865 -723,-6439zm-4259 10417c546,267 369,167 563,779 231,729 597,1086 1214,1400 1207,614 2569,493 3858,494 791,-50 1700,-256 2353,-726 243,-174 348,-302 530,-600 1000,-1636 349,-800 1810,-2147 180,-178 236,-236 393,-456 41,-58 50,-69 87,-127l214 -418c441,-972 435,-1830 320,-2940 -433,-2130 -1485,-3523 -2671,-4568 -3934,-3463 -9485,-792 -10681,4224 -512,2146 -98,4053 2010,5085z"/>
   <path class="fil1" d="M10159 8529c-4366,574 -3627,6856 723,6439 1647,-158 3108,-1684 2903,-3562 -182,-1682 -1770,-3121 -3626,-2877z"/>
   <path class="fil2" d="M9228 19731c-292,-33 -335,-87 -388,-395 -98,-569 -173,-1617 291,-1926 537,298 469,1944 97,2321zm2730 3c-406,-194 -325,-717 -311,-1195 16,-527 -83,-878 311,-1129 362,184 370,748 356,1202 -12,397 4,960 -356,1122zm-2432 -2755c-1778,228 -3755,815 -2700,2944 956,1932 5800,1779 7008,634 667,-632 848,-1990 568,-2343 -191,-242 -565,-494 -896,-657 -1171,-576 -2679,-744 -3980,-578z"/>
   <path class="fil1" d="M4067 16384c1088,-642 1489,-3091 1133,-4770 -537,-101 -1664,3528 -1133,4770z"/>
   <path class="fil1" d="M17012 16247c175,-2048 -165,-3240 -1096,-4685 -10,12 -22,17 -25,38 -3,21 -20,31 -23,40l-85 464c-23,264 -30,517 -27,782 4,483 62,986 158,1425 166,753 560,1780 1098,1936z"/>
   <path class="fil3" d="M9070 18186c-5,-281 124,-699 257,-268 78,256 9,522 -125,679 -121,-132 -127,-174 -132,-411zm158 1545c372,-377 440,-2023 -97,-2321 -464,309 -389,1357 -291,1926 53,308 96,362 388,395z"/>
   <path class="fil3" d="M11976 18592c-53,-271 -99,-625 53,-847 48,49 180,48 139,514 -36,400 -146,313 -192,333zm-18 1142c360,-162 344,-725 356,-1122 14,-454 6,-1018 -356,-1202 -394,251 -295,602 -311,1129 -14,478 -95,1001 311,1195z"/>
   <path class="fil1" d="M9202 18597c134,-157 203,-423 125,-679 -133,-431 -262,-13 -257,268 5,237 11,279 132,411z"/>
   <path class="fil1" d="M11976 18592c46,-20 156,67 192,-333 41,-466 -91,-465 -139,-514 -152,222 -106,576 -53,847z"/>
  </g>
 </g>
</svg>
